<?xml version="1.0" encoding="UTF-8" standalone="no"?>
<svg
   xmlns:dc="http://purl.org/dc/elements/1.1/"
   xmlns:cc="http://creativecommons.org/ns#"
   xmlns:rdf="http://www.w3.org/1999/02/22-rdf-syntax-ns#"
   xmlns:svg="http://www.w3.org/2000/svg"
   xmlns="http://www.w3.org/2000/svg"
   xmlns:sodipodi="http://sodipodi.sourceforge.net/DTD/sodipodi-0.dtd"
   xmlns:inkscape="http://www.inkscape.org/namespaces/inkscape"
   viewBox="0 0 756.27 553.77"
   version="1.1"
   id="svg26"
   sodipodi:docname="note-297252.svg"
   inkscape:export-filename="C:\Users\Jeovani\Documents\Proyectos\Curso-AWS_App-Notas\resources\note-297252.png"
   inkscape:export-xdpi="190.34616"
   inkscape:export-ydpi="190.34616"
   inkscape:version="1.0.2-2 (e86c870879, 2021-01-15)">
  <metadata
     id="metadata30">
    <rdf:RDF>
      <cc:Work
         rdf:about="">
        <dc:format>image/svg+xml</dc:format>
        <dc:type
           rdf:resource="http://purl.org/dc/dcmitype/StillImage" />
      </cc:Work>
    </rdf:RDF>
  </metadata>
  <sodipodi:namedview
     pagecolor="#ffffff"
     bordercolor="#666666"
     borderopacity="1"
     objecttolerance="10"
     gridtolerance="10"
     guidetolerance="10"
     inkscape:pageopacity="0"
     inkscape:pageshadow="2"
     inkscape:window-width="1920"
     inkscape:window-height="1017"
     id="namedview28"
     showgrid="false"
     inkscape:zoom="0.96771722"
     inkscape:cx="367.39044"
     inkscape:cy="306.22327"
     inkscape:window-x="-8"
     inkscape:window-y="-8"
     inkscape:window-maximized="1"
     inkscape:current-layer="svg26" />
  <defs
     id="defs10">
    <filter
       id="b"
       x="-.042634"
       y="-.10123"
       width="1.0853"
       height="1.2025">
      <feGaussianBlur
         stdDeviation="9.294372"
         id="feGaussianBlur2" />
    </filter>
    <linearGradient
       id="a"
       x1="1.0006"
       x2=".96753"
       y1="1.0435"
       y2=".8464">
      <stop
         stop-opacity=".511"
         offset="0"
         id="stop5" />
      <stop
         stop-opacity="0"
         offset="1"
         id="stop7" />
    </linearGradient>
  </defs>
  <path
     d="m529.06 361.16l131.48-105.71 17.143 220.05-522.91-14.286 374.29-100.05z"
     filter="url(#b)"
     opacity=".769"
     stroke="#000"
     stroke-width=".297"
     id="path12" />
  <g
     stroke-opacity=".686"
     stroke-width=".697"
     id="g18">
    <path
       d="m63.35 59.735h611.48l-8.5714 402.91-602.91 22.857v-425.76z"
       fill="#ffd42a"
       opacity=".98"
       stroke="#000"
       id="path14" />
    <path
       d="m674.83 59.735l-8.5714 402.91-602.91 22.857 611.48-425.76z"
       fill="url(#a)"
       id="path16" />
  </g>
  <g
     fill="#f2f2f2"
     fill-opacity=".739"
     stroke="#000"
     stroke-width=".346"
     id="g24">
    <path
       d="m703.29 259.47l-200.12-208.58-0.1302-0.1662-0.0917-0.1828-0.0533-0.1937-0.015-0.1987 0.0232-0.1979 0.0613-0.1914 0.0992-0.1789 0.137-0.1606 12.424 0.1838 0.3308-12.421 12.424 0.1838 0.3308-12.421 12.424 0.1838 0.3308-12.421 12.424 0.1837 0.3308-12.421 0.1661-0.1303 0.1829-0.0917 0.1937-0.0532 0.1987-0.015 0.1979 0.0232 0.1913 0.0612 0.1788 0.0992 0.1606 0.137 200.12 208.58 0.1302 0.1662 0.0917 0.1828 0.0533 0.1937 0.015 0.1987-0.0232 0.1979-0.0613 0.1913-0.0992 0.1789-0.137 0.1606-12.424-0.1838-0.3308 12.421-12.424-0.1838-0.3309 12.421-12.424-0.1838-0.3308 12.421-12.424-0.1838-0.3308 12.421-0.1661 0.1302-0.1828 0.0917-0.1937 0.0533-0.1987 0.015-0.1979-0.0232-0.1913-0.0613-0.1789-0.0992-0.1606-0.137z"
       opacity=".588"
       id="path20" />
    <path
       d="m240.04 553.42l-239.4-161.99-0.1622-0.1352-0.128-0.1595-0.0927-0.1782-0.0563-0.1912-0.0188-0.1984 0.0198-0.2 0.0595-0.1957 0.1003-0.1858 12.187-2.4253-2.2809-12.215 12.187-2.4253-2.2809-12.215 12.187-2.4253-2.2809-12.214 12.187-2.4254-2.2809-12.214 0.1352-0.1622 0.1596-0.128 0.1782-0.0927 0.1912-0.0564 0.1984-0.0188 0.1999 0.0197 0.1957 0.0595 0.1858 0.1003 239.4 161.99 0.1622 0.1352 0.128 0.1595 0.0927 0.1782 0.0563 0.1912 0.0188 0.1984-0.0198 0.1999-0.0595 0.1957-0.1003 0.1858-12.187 2.4253 2.2809 12.215-12.187 2.4252 2.2809 12.215-12.187 2.4253 2.2809 12.215-12.187 2.4252 2.2809 12.215-0.1352 0.1622-0.1595 0.128-0.1782 0.0927-0.1912 0.0563-0.1984 0.0188-0.1999-0.0198-0.1957-0.0595-0.1858-0.1003z"
       opacity=".588"
       id="path22" />
  </g>
</svg>
